<svg xmlns:xlink="http://www.w3.org/1999/xlink" xmlns="http://www.w3.org/2000/svg" viewBox="0 0 369.6551724137931 63.21053665340861" preserveAspectRatio="xMidYMid meet" class="css-fxal1u" id="afbfgced" width="369.6551724137931"  height="63.21053665340861" ><defs id="SvgjsDefs1087"></defs><g id="SvgjsG1088" featurekey="symbolFeature-0" transform="matrix(0.7023373313991663,0,0,0.7023373313991663,-4.944454786258088,-3.5115108342137993)" fill="#878ECD"><g xmlns="http://www.w3.org/2000/svg" fill="#878ECD"><path d="M56.204,66.581c-3.826-2.17-8.582-2.17-12.409,0c-0.925,0.524-1.538,1.431-1.681,2.487   c-0.144,1.06,0.209,2.103,0.965,2.857l0.054,0.054c1.078,1.076,2.741,1.31,4.046,0.569c1.74-0.986,3.902-0.986,5.641,0   c0.511,0.29,1.073,0.43,1.637,0.43c0.877,0,1.753-0.344,2.409-0.998l0.054-0.053c0.758-0.757,1.109-1.8,0.967-2.859   C57.743,68.012,57.131,67.105,56.204,66.581z M55.594,70.598l-0.053,0.053c-0.482,0.48-1.22,0.591-1.792,0.267   c-2.312-1.313-5.185-1.313-7.497,0c-0.573,0.324-1.31,0.214-1.791-0.266l-0.054-0.054c-0.338-0.338-0.496-0.805-0.432-1.278   c0.063-0.47,0.335-0.871,0.746-1.104c3.256-1.846,7.302-1.846,10.557,0c0.411,0.233,0.684,0.635,0.746,1.104   C56.089,69.794,55.932,70.26,55.594,70.598z" fill="#878ECD"></path><path d="M63.775,59.676c-8.11-6.261-19.44-6.261-27.551,0c-0.772,0.596-1.25,1.495-1.312,2.468   c-0.062,0.974,0.298,1.927,0.988,2.615l0.052,0.053c1.204,1.203,3.125,1.327,4.47,0.291c5.639-4.35,13.514-4.35,19.153,0   c0.61,0.47,1.338,0.701,2.065,0.701c0.875,0,1.747-0.335,2.404-0.991l0.053-0.053c0.69-0.689,1.051-1.644,0.988-2.616   C65.025,61.171,64.548,60.271,63.775,59.676z M62.772,63.43l-0.054,0.053c-0.537,0.538-1.396,0.595-1.995,0.133   c-6.313-4.87-15.133-4.87-21.447,0c-0.6,0.462-1.458,0.405-1.995-0.132l-0.053-0.053c-0.313-0.313-0.47-0.727-0.442-1.168   c0.028-0.439,0.235-0.83,0.585-1.1c3.718-2.87,8.172-4.306,12.628-4.306c4.455,0,8.911,1.436,12.628,4.306   c0.35,0.269,0.557,0.659,0.585,1.1C63.241,62.704,63.084,63.118,62.772,63.43z" fill="#878ECD"></path><path d="M50,45.032c-7.688,0-15.142,2.721-20.99,7.663c-0.721,0.608-1.156,1.499-1.195,2.442c-0.039,0.946,0.323,1.873,0.993,2.542   l0.051,0.051c1.258,1.257,3.24,1.336,4.608,0.181c9.579-8.07,23.485-8.07,33.064,0c0.647,0.546,1.433,0.816,2.214,0.816   c0.867,0,1.731-0.335,2.394-0.996l0.051-0.05c0.672-0.67,1.033-1.598,0.994-2.544c-0.038-0.943-0.475-1.834-1.194-2.442   C65.142,47.753,57.688,45.032,50,45.032z M69.864,56.351l-0.051,0.051c-0.563,0.562-1.453,0.593-2.071,0.073   C62.796,52.307,56.494,50.011,50,50.011c-6.495,0-12.795,2.295-17.742,6.463c-0.618,0.52-1.508,0.488-2.07-0.072l-0.052-0.052   c-0.305-0.305-0.462-0.708-0.444-1.137c0.018-0.426,0.206-0.811,0.53-1.085c5.73-4.842,12.753-7.262,19.777-7.262   c7.022,0,14.049,2.421,19.778,7.262c0.324,0.274,0.512,0.659,0.53,1.085C70.326,55.643,70.168,56.047,69.864,56.351z" fill="#878ECD"></path><path d="M92.021,93.121h-3.161v-7.246c0-0.519-0.42-0.938-0.938-0.938h-4.186v-4.179c0-0.518-0.42-0.938-0.938-0.938h-2.135V35.655   H91.63c0.411,0,0.774-0.267,0.896-0.66c0.123-0.392-0.024-0.818-0.362-1.052L75.536,22.45V12.206c0-0.518-0.421-0.939-0.938-0.939   h-7.174c-0.52,0-0.939,0.421-0.939,0.939v3.987L50.533,5.167c-0.32-0.223-0.746-0.223-1.067,0L7.836,33.943   c-0.338,0.234-0.485,0.66-0.363,1.052c0.123,0.393,0.486,0.659,0.896,0.659h10.97v44.165h-2.136c-0.519,0-0.939,0.421-0.939,0.938   v4.179h-4.186c-0.519,0-0.939,0.42-0.939,0.938v7.246H7.979c-0.518,0-0.939,0.421-0.939,0.939S7.461,95,7.979,95h4.1h75.842h4.1   c0.519,0,0.939-0.421,0.939-0.939S92.539,93.121,92.021,93.121z M68.362,13.145h5.296v13.47h-5.296V13.145z M50,7.081   l16.484,11.395v9.078c0,0.519,0.42,0.939,0.939,0.939h7.174c0.518,0,0.938-0.42,0.938-0.938v-2.822l13.084,9.045h-8.897H22.988   l26.529-18.758c0.424-0.299,0.524-0.885,0.225-1.309c-0.299-0.423-0.885-0.524-1.309-0.224L19.736,33.777H11.38L50,7.081z    M21.217,41.794h17.509c0.519,0,0.939-0.42,0.939-0.939s-0.42-0.939-0.939-0.939H21.217v-4.261h57.566v4.261h-17.51   c-0.519,0-0.938,0.421-0.938,0.939s0.42,0.939,0.938,0.939h17.51v38.025H21.217V41.794z M18.143,81.697h2.136h59.444h2.135v3.239   H18.143V81.697z M13.018,93.121v-6.307h4.186h65.593h4.185v6.307H13.018z" fill="#878ECD"></path></g></g><g id="SvgjsG1089" featurekey="nameFeature-0" transform="matrix(0.8122026685425687,0,0,0.8122026685425687,77.67953669092961,10.71822422140091)" fill="#DDE7F2"><path d="M23.714 11.428999999999998 l4.2857 4.2857 l0 20 l-4.2857 4.2857 l-20.857 0 l0 -28.571 l20.857 0 z M20.571 33.7143 l0 -16 l-10.286 0 l0 16 l10.286 0 z M55.428285714285714 11.428999999999998 l4.2857 4.2857 l0 20 l-4.2857 4.2857 l-16.571 0 l-4.2857 -4.2857 l0 -20 l4.2857 -4.2857 l16.571 0 z M52.28528571428572 33.7143 l0 -16 l-10.286 0 l0 16 l10.286 0 z M87.42857142857143 11.428999999999998 l7.4286 0 l0 28.571 l-7.4286 0 l0 -16 l-5.0286 9.7143 l-3.7143 0 l-4.9714 -9.7143 l0 16 l-7.4286 0 l0 -28.571 l7.4286 0 l6.8571 12.971 z M122.28542857142857 11.428999999999998 l4.2857 4.2857 l0 20 l-4.2857 4.2857 l-16.571 0 l-4.2857 -4.2857 l0 -20 l4.2857 -4.2857 l16.571 0 z M119.14242857142857 33.7143 l0 -16 l-10.286 0 l0 16 l10.286 0 z M131.14285428571426 17.714 l0 -6.2857 l24.286 0 l0 6.2857 l-8.4571 0 l0 22.286 l-7.4286 0 l0 -22.286 l-8.4 0 z M159.14285714285714 40 l0 -5.7143 l2.2857 0 l0 -17.143 l-2.2857 0 l0 -5.7143 l12 0 l0 5.7143 l-2.2857 0 l0 17.143 l2.2857 0 l0 5.7143 l-12 0 z M193.429 17.714 l-9.1429 0 l0 16 l9.1429 0 l2.2857 -2.2857 l5.4286 0 l0 4.2857 l-4.2857 4.2857 l-15.714 0 l-4.2857 -4.2857 l0 -20 l4.2857 -4.2857 l15.714 0 l4.2857 4.2857 l0 4.2857 l-5.4286 0 z M225.48614285714285 11.428999999999998 l7.4286 0 l0 28.571 l-7.4286 0 l0 -11.143 l-10.286 0 l0 11.143 l-7.4857 0 l0.057143 -28.571 l7.4286 0 l0 11.143 l10.286 0 l0 -11.143 z M260.34257142857143 11.428999999999998 l4.2857 4.2857 l0 20 l-4.2857 4.2857 l-16.571 0 l-4.2857 -4.2857 l0 -20 l4.2857 -4.2857 l16.571 0 z M257.19957142857146 33.7143 l0 -16 l-10.286 0 l0 16 l10.286 0 z M271.19995714285716 35.7143 l0 -24.286 l7.4286 0 l0 22.286 l10.286 0 l0 -22.286 l7.4286 0 l0 24.286 l-4.2857 4.2857 l-16.571 0 z M320.9141428571429 17.714 l-10.571 0 l0 4.8571 l14 0 l4.2857 4.2857 l0 8.8571 l-4.2857 4.2857 l-17.143 0 l-4.2857 -4.2857 l0 -4.2857 l5.4286 0 l2.2857 2.2857 l10.571 0 l0 -4.8571 l-14 0 l-4.2857 -4.2857 l0 -8.8571 l4.2857 -4.2857 l17.143 0 l4.2857 4.2857 l0 4.2857 l-5.4286 0 z M359.4858571428572 17.714 l-16.857 0 l0 4.8571 l14.571 0 l0 6.2857 l-14.571 0 l0 4.8571 l16.857 0 l0 6.2857 l-20 0 l-4.2857 -4.2857 l0 -24.286 l24.286 0 l0 6.2857 z" fill="#DDE7F2"></path></g></svg>